<svg version="1.1" xmlns="http://www.w3.org/2000/svg" xmlns:xlink="http://www.w3.org/1999/xlink" width="686" height="484"><defs/><g><text fill="#eeeeee" stroke="none" font-family="Arial" font-size="24px" font-style="normal" font-weight="normal" text-decoration="none" x="0" y="0">UNREGISTERED</text><text fill="#eeeeee" stroke="none" font-family="Arial" font-size="24px" font-style="normal" font-weight="normal" text-decoration="none" x="0" y="30">UNREGISTERED</text><text fill="#eeeeee" stroke="none" font-family="Arial" font-size="24px" font-style="normal" font-weight="normal" text-decoration="none" x="0" y="60">UNREGISTERED</text><text fill="#eeeeee" stroke="none" font-family="Arial" font-size="24px" font-style="normal" font-weight="normal" text-decoration="none" x="0" y="90">UNREGISTERED</text><text fill="#eeeeee" stroke="none" font-family="Arial" font-size="24px" font-style="normal" font-weight="normal" text-decoration="none" x="0" y="120">UNREGISTERED</text><text fill="#eeeeee" stroke="none" font-family="Arial" font-size="24px" font-style="normal" font-weight="normal" text-decoration="none" x="0" y="150">UNREGISTERED</text><text fill="#eeeeee" stroke="none" font-family="Arial" font-size="24px" font-style="normal" font-weight="normal" text-decoration="none" x="0" y="180">UNREGISTERED</text><text fill="#eeeeee" stroke="none" font-family="Arial" font-size="24px" font-style="normal" font-weight="normal" text-decoration="none" x="0" y="210">UNREGISTERED</text><text fill="#eeeeee" stroke="none" font-family="Arial" font-size="24px" font-style="normal" font-weight="normal" text-decoration="none" x="0" y="240">UNREGISTERED</text><text fill="#eeeeee" stroke="none" font-family="Arial" font-size="24px" font-style="normal" font-weight="normal" text-decoration="none" x="0" y="270">UNREGISTERED</text><text fill="#eeeeee" stroke="none" font-family="Arial" font-size="24px" font-style="normal" font-weight="normal" text-decoration="none" x="0" y="300">UNREGISTERED</text><text fill="#eeeeee" stroke="none" font-family="Arial" font-size="24px" font-style="normal" font-weight="normal" text-decoration="none" x="0" y="330">UNREGISTERED</text><text fill="#eeeeee" stroke="none" font-family="Arial" font-size="24px" font-style="normal" font-weight="normal" text-decoration="none" x="0" y="360">UNREGISTERED</text><text fill="#eeeeee" stroke="none" font-family="Arial" font-size="24px" font-style="normal" font-weight="normal" text-decoration="none" x="0" y="390">UNREGISTERED</text><text fill="#eeeeee" stroke="none" font-family="Arial" font-size="24px" font-style="normal" font-weight="normal" text-decoration="none" x="0" y="420">UNREGISTERED</text><text fill="#eeeeee" stroke="none" font-family="Arial" font-size="24px" font-style="normal" font-weight="normal" text-decoration="none" x="0" y="450">UNREGISTERED</text><text fill="#eeeeee" stroke="none" font-family="Arial" font-size="24px" font-style="normal" font-weight="normal" text-decoration="none" x="0" y="480">UNREGISTERED</text><text fill="#eeeeee" stroke="none" font-family="Arial" font-size="24px" font-style="normal" font-weight="normal" text-decoration="none" x="200" y="0">UNREGISTERED</text><text fill="#eeeeee" stroke="none" font-family="Arial" font-size="24px" font-style="normal" font-weight="normal" text-decoration="none" x="200" y="30">UNREGISTERED</text><text fill="#eeeeee" stroke="none" font-family="Arial" font-size="24px" font-style="normal" font-weight="normal" text-decoration="none" x="200" y="60">UNREGISTERED</text><text fill="#eeeeee" stroke="none" font-family="Arial" font-size="24px" font-style="normal" font-weight="normal" text-decoration="none" x="200" y="90">UNREGISTERED</text><text fill="#eeeeee" stroke="none" font-family="Arial" font-size="24px" font-style="normal" font-weight="normal" text-decoration="none" x="200" y="120">UNREGISTERED</text><text fill="#eeeeee" stroke="none" font-family="Arial" font-size="24px" font-style="normal" font-weight="normal" text-decoration="none" x="200" y="150">UNREGISTERED</text><text fill="#eeeeee" stroke="none" font-family="Arial" font-size="24px" font-style="normal" font-weight="normal" text-decoration="none" x="200" y="180">UNREGISTERED</text><text fill="#eeeeee" stroke="none" font-family="Arial" font-size="24px" font-style="normal" font-weight="normal" text-decoration="none" x="200" y="210">UNREGISTERED</text><text fill="#eeeeee" stroke="none" font-family="Arial" font-size="24px" font-style="normal" font-weight="normal" text-decoration="none" x="200" y="240">UNREGISTERED</text><text fill="#eeeeee" stroke="none" font-family="Arial" font-size="24px" font-style="normal" font-weight="normal" text-decoration="none" x="200" y="270">UNREGISTERED</text><text fill="#eeeeee" stroke="none" font-family="Arial" font-size="24px" font-style="normal" font-weight="normal" text-decoration="none" x="200" y="300">UNREGISTERED</text><text fill="#eeeeee" stroke="none" font-family="Arial" font-size="24px" font-style="normal" font-weight="normal" text-decoration="none" x="200" y="330">UNREGISTERED</text><text fill="#eeeeee" stroke="none" font-family="Arial" font-size="24px" font-style="normal" font-weight="normal" text-decoration="none" x="200" y="360">UNREGISTERED</text><text fill="#eeeeee" stroke="none" font-family="Arial" font-size="24px" font-style="normal" font-weight="normal" text-decoration="none" x="200" y="390">UNREGISTERED</text><text fill="#eeeeee" stroke="none" font-family="Arial" font-size="24px" font-style="normal" font-weight="normal" text-decoration="none" x="200" y="420">UNREGISTERED</text><text fill="#eeeeee" stroke="none" font-family="Arial" font-size="24px" font-style="normal" font-weight="normal" text-decoration="none" x="200" y="450">UNREGISTERED</text><text fill="#eeeeee" stroke="none" font-family="Arial" font-size="24px" font-style="normal" font-weight="normal" text-decoration="none" x="200" y="480">UNREGISTERED</text><text fill="#eeeeee" stroke="none" font-family="Arial" font-size="24px" font-style="normal" font-weight="normal" text-decoration="none" x="400" y="0">UNREGISTERED</text><text fill="#eeeeee" stroke="none" font-family="Arial" font-size="24px" font-style="normal" font-weight="normal" text-decoration="none" x="400" y="30">UNREGISTERED</text><text fill="#eeeeee" stroke="none" font-family="Arial" font-size="24px" font-style="normal" font-weight="normal" text-decoration="none" x="400" y="60">UNREGISTERED</text><text fill="#eeeeee" stroke="none" font-family="Arial" font-size="24px" font-style="normal" font-weight="normal" text-decoration="none" x="400" y="90">UNREGISTERED</text><text fill="#eeeeee" stroke="none" font-family="Arial" font-size="24px" font-style="normal" font-weight="normal" text-decoration="none" x="400" y="120">UNREGISTERED</text><text fill="#eeeeee" stroke="none" font-family="Arial" font-size="24px" font-style="normal" font-weight="normal" text-decoration="none" x="400" y="150">UNREGISTERED</text><text fill="#eeeeee" stroke="none" font-family="Arial" font-size="24px" font-style="normal" font-weight="normal" text-decoration="none" x="400" y="180">UNREGISTERED</text><text fill="#eeeeee" stroke="none" font-family="Arial" font-size="24px" font-style="normal" font-weight="normal" text-decoration="none" x="400" y="210">UNREGISTERED</text><text fill="#eeeeee" stroke="none" font-family="Arial" font-size="24px" font-style="normal" font-weight="normal" text-decoration="none" x="400" y="240">UNREGISTERED</text><text fill="#eeeeee" stroke="none" font-family="Arial" font-size="24px" font-style="normal" font-weight="normal" text-decoration="none" x="400" y="270">UNREGISTERED</text><text fill="#eeeeee" stroke="none" font-family="Arial" font-size="24px" font-style="normal" font-weight="normal" text-decoration="none" x="400" y="300">UNREGISTERED</text><text fill="#eeeeee" stroke="none" font-family="Arial" font-size="24px" font-style="normal" font-weight="normal" text-decoration="none" x="400" y="330">UNREGISTERED</text><text fill="#eeeeee" stroke="none" font-family="Arial" font-size="24px" font-style="normal" font-weight="normal" text-decoration="none" x="400" y="360">UNREGISTERED</text><text fill="#eeeeee" stroke="none" font-family="Arial" font-size="24px" font-style="normal" font-weight="normal" text-decoration="none" x="400" y="390">UNREGISTERED</text><text fill="#eeeeee" stroke="none" font-family="Arial" font-size="24px" font-style="normal" font-weight="normal" text-decoration="none" x="400" y="420">UNREGISTERED</text><text fill="#eeeeee" stroke="none" font-family="Arial" font-size="24px" font-style="normal" font-weight="normal" text-decoration="none" x="400" y="450">UNREGISTERED</text><text fill="#eeeeee" stroke="none" font-family="Arial" font-size="24px" font-style="normal" font-weight="normal" text-decoration="none" x="400" y="480">UNREGISTERED</text><text fill="#eeeeee" stroke="none" font-family="Arial" font-size="24px" font-style="normal" font-weight="normal" text-decoration="none" x="600" y="0">UNREGISTERED</text><text fill="#eeeeee" stroke="none" font-family="Arial" font-size="24px" font-style="normal" font-weight="normal" text-decoration="none" x="600" y="30">UNREGISTERED</text><text fill="#eeeeee" stroke="none" font-family="Arial" font-size="24px" font-style="normal" font-weight="normal" text-decoration="none" x="600" y="60">UNREGISTERED</text><text fill="#eeeeee" stroke="none" font-family="Arial" font-size="24px" font-style="normal" font-weight="normal" text-decoration="none" x="600" y="90">UNREGISTERED</text><text fill="#eeeeee" stroke="none" font-family="Arial" font-size="24px" font-style="normal" font-weight="normal" text-decoration="none" x="600" y="120">UNREGISTERED</text><text fill="#eeeeee" stroke="none" font-family="Arial" font-size="24px" font-style="normal" font-weight="normal" text-decoration="none" x="600" y="150">UNREGISTERED</text><text fill="#eeeeee" stroke="none" font-family="Arial" font-size="24px" font-style="normal" font-weight="normal" text-decoration="none" x="600" y="180">UNREGISTERED</text><text fill="#eeeeee" stroke="none" font-family="Arial" font-size="24px" font-style="normal" font-weight="normal" text-decoration="none" x="600" y="210">UNREGISTERED</text><text fill="#eeeeee" stroke="none" font-family="Arial" font-size="24px" font-style="normal" font-weight="normal" text-decoration="none" x="600" y="240">UNREGISTERED</text><text fill="#eeeeee" stroke="none" font-family="Arial" font-size="24px" font-style="normal" font-weight="normal" text-decoration="none" x="600" y="270">UNREGISTERED</text><text fill="#eeeeee" stroke="none" font-family="Arial" font-size="24px" font-style="normal" font-weight="normal" text-decoration="none" x="600" y="300">UNREGISTERED</text><text fill="#eeeeee" stroke="none" font-family="Arial" font-size="24px" font-style="normal" font-weight="normal" text-decoration="none" x="600" y="330">UNREGISTERED</text><text fill="#eeeeee" stroke="none" font-family="Arial" font-size="24px" font-style="normal" font-weight="normal" text-decoration="none" x="600" y="360">UNREGISTERED</text><text fill="#eeeeee" stroke="none" font-family="Arial" font-size="24px" font-style="normal" font-weight="normal" text-decoration="none" x="600" y="390">UNREGISTERED</text><text fill="#eeeeee" stroke="none" font-family="Arial" font-size="24px" font-style="normal" font-weight="normal" text-decoration="none" x="600" y="420">UNREGISTERED</text><text fill="#eeeeee" stroke="none" font-family="Arial" font-size="24px" font-style="normal" font-weight="normal" text-decoration="none" x="600" y="450">UNREGISTERED</text><text fill="#eeeeee" stroke="none" font-family="Arial" font-size="24px" font-style="normal" font-weight="normal" text-decoration="none" x="600" y="480">UNREGISTERED</text><g transform="translate(-84,-2070) scale(1,1)"><rect fill="#C0C0C0" stroke="none" x="255" y="2087" width="137.2" height="15" opacity="0.2"/></g><g transform="translate(-84,-2070) scale(1,1)"><rect fill="#C0C0C0" stroke="none" x="255" y="2101" width="343" height="201" opacity="0.2"/></g><g transform="translate(-84,-2070) scale(1,1)"><rect fill="#ffffff" stroke="none" x="248" y="2095" width="343" height="200"/></g><g transform="translate(-84,-2070) scale(1,1)"><path fill="none" stroke="#000000" d="M 248 2095 L 591 2095 L 591 2295 L 248 2295 L 248 2095 Z Z" stroke-miterlimit="10"/></g><g transform="translate(-84,-2070) scale(1,1)"><rect fill="#ffffff" stroke="none" x="248" y="2080" width="137.2" height="15"/></g><g transform="translate(-84,-2070) scale(1,1)"><path fill="none" stroke="#000000" d="M 248 2080 L 385.2 2080 L 385.2 2095 L 248 2095 L 248 2080 Z Z" stroke-miterlimit="10"/></g><g transform="translate(-84,-2070) scale(1,1)"><rect fill="#ffffff" stroke="none" x="248" y="2094" width="343" height="201"/></g><g transform="translate(-84,-2070) scale(1,1)"><path fill="none" stroke="#000000" d="M 248 2094 L 591 2094 L 591 2295 L 248 2295 L 248 2094 Z Z" stroke-miterlimit="10"/></g><g transform="translate(-84,-2070) scale(1,1)"><g><path fill="none" stroke="none"/><text fill="#000000" stroke="none" font-family="Arial" font-size="13px" font-style="normal" font-weight="bold" text-decoration="none" x="340.73828125" y="2114.5">Exteneral payment process</text></g></g><g transform="translate(-84,-2070) scale(1,1)"><path fill="#ffffff" stroke="none" d="M 130.27434055397728 2434.6800000000003 C 130.27434055397728 2429.886167936 134.16018287892274 2426 138.95361328125 2426 C 143.74704368357726 2426 147.63288600852272 2429.886167936 147.63288600852272 2434.6800000000003 C 147.63288600852272 2439.4738320640004 143.74704368357726 2443.36 138.95361328125 2443.36 C 134.16018287892274 2443.36 130.27434055397728 2439.4738320640004 130.27434055397728 2434.6800000000003 Z"/></g><g transform="translate(-84,-2070) scale(1,1)"><path fill="none" stroke="#000000" d="M 130.27434055397728 2434.6800000000003 C 130.27434055397728 2429.886167936 134.16018287892274 2426 138.95361328125 2426 C 143.74704368357726 2426 147.63288600852272 2429.886167936 147.63288600852272 2434.6800000000003 C 147.63288600852272 2439.4738320640004 143.74704368357726 2443.36 138.95361328125 2443.36 C 134.16018287892274 2443.36 130.27434055397728 2439.4738320640004 130.27434055397728 2434.6800000000003 Z" stroke-miterlimit="10"/></g><g transform="translate(-84,-2070) scale(1,1)"><path fill="none" stroke="#000000" d="M 138.95361328125 2443.36 L 138.95361328125 2460.64" stroke-miterlimit="10"/></g><g transform="translate(-84,-2070) scale(1,1)"><path fill="none" stroke="#000000" d="M 129.76379509943183 2449.84 L 148.14343146306817 2449.84" stroke-miterlimit="10"/></g><g transform="translate(-84,-2070) scale(1,1)"><path fill="none" stroke="#000000" d="M 138.95361328125 2460.64 L 126.18997691761365 2478" stroke-miterlimit="10"/></g><g transform="translate(-84,-2070) scale(1,1)"><path fill="none" stroke="#000000" d="M 138.95361328125 2460.64 L 151.71724964488635 2478" stroke-miterlimit="10"/></g><g transform="translate(-84,-2070) scale(1,1)"><g><path fill="none" stroke="none"/><text fill="#000000" stroke="none" font-family="Arial" font-size="13px" font-style="normal" font-weight="bold" text-decoration="none" x="122.33544921875" y="2498.5">Client</text></g></g><g transform="translate(-84,-2070) scale(1,1)"><g><path fill="none" stroke="none"/><text fill="#000000" stroke="none" font-family="Arial" font-size="13px" font-style="normal" font-weight="normal" text-decoration="none" x="98.5" y="2513.5">(from Model1)</text></g></g><g transform="translate(-84,-2070) scale(1,1)"><rect fill="#C0C0C0" stroke="none" x="255" y="2319" width="204.8" height="15" opacity="0.2"/></g><g transform="translate(-84,-2070) scale(1,1)"><rect fill="#C0C0C0" stroke="none" x="255" y="2333" width="512" height="218" opacity="0.2"/></g><g transform="translate(-84,-2070) scale(1,1)"><rect fill="#ffffff" stroke="none" x="248" y="2327" width="512" height="217"/></g><g transform="translate(-84,-2070) scale(1,1)"><path fill="none" stroke="#000000" d="M 248 2327 L 760 2327 L 760 2544 L 248 2544 L 248 2327 Z Z" stroke-miterlimit="10"/></g><g transform="translate(-84,-2070) scale(1,1)"><rect fill="#ffffff" stroke="none" x="248" y="2312" width="204.8" height="15"/></g><g transform="translate(-84,-2070) scale(1,1)"><path fill="none" stroke="#000000" d="M 248 2312 L 452.8 2312 L 452.8 2327 L 248 2327 L 248 2312 Z Z" stroke-miterlimit="10"/></g><g transform="translate(-84,-2070) scale(1,1)"><rect fill="#ffffff" stroke="none" x="248" y="2326" width="512" height="218"/></g><g transform="translate(-84,-2070) scale(1,1)"><path fill="none" stroke="#000000" d="M 248 2326 L 760 2326 L 760 2544 L 248 2544 L 248 2326 Z Z" stroke-miterlimit="10"/></g><g transform="translate(-84,-2070) scale(1,1)"><g><path fill="none" stroke="none"/><text fill="#000000" stroke="none" font-family="Arial" font-size="13px" font-style="normal" font-weight="bold" text-decoration="none" x="438.603271484375" y="2346.5">Payment Management</text></g></g><g transform="translate(-84,-2070) scale(1,1)"><rect fill="#C0C0C0" stroke="none" x="319" y="2471" width="63.18994140625" height="37" opacity="0.2"/></g><g transform="translate(-84,-2070) scale(1,1)"><rect fill="#ffffff" stroke="none" x="312" y="2464" width="63.18994140625" height="37"/></g><g transform="translate(-84,-2070) scale(1,1)"><path fill="none" stroke="#000000" d="M 312 2464 L 375.18994140625 2464 L 375.18994140625 2501 L 312 2501 L 312 2464 Z Z" stroke-miterlimit="10"/></g><g transform="translate(-84,-2070) scale(1,1)"><rect fill="#ffffff" stroke="none" x="312" y="2464" width="63.18994140625" height="37"/></g><g transform="translate(-84,-2070) scale(1,1)"><path fill="none" stroke="#000000" d="M 312 2464 L 375.18994140625 2464 L 375.18994140625 2501 L 312 2501 L 312 2464 Z Z" stroke-miterlimit="10"/></g><g transform="translate(-84,-2070) scale(1,1)"><g><path fill="none" stroke="none"/><text fill="#000000" stroke="none" font-family="Arial" font-size="13px" font-style="normal" font-weight="bold" text-decoration="none" x="317.944091796875" y="2483.5">Payment</text><path fill="none" stroke="#000000" d="M 370.68994140625 2483.5 L 316.5 2483.5" stroke-miterlimit="10"/><text fill="#000000" stroke="none" font-family="Arial" font-size="13px" font-style="normal" font-weight="bold" text-decoration="none" x="331.3154296875" y="2496.5">filter</text><path fill="none" stroke="#000000" d="M 357.680419921875 2496.5 L 329.509521484375 2496.5" stroke-miterlimit="10"/></g></g><g transform="translate(-84,-2070) scale(1,1)"><path fill="none" stroke="#000000" d="M 168 2488 L 312 2489" stroke-miterlimit="10"/></g><g transform="translate(-84,-2070) scale(1,1)"><path fill="none" stroke="#000000" d="M 301.80833812523827 2493.138843827753 L 312 2489 L 301.8668022399194 2484.720011313672" stroke-miterlimit="10"/></g><g transform="translate(-84,-2070) scale(1,1)"><g><path fill="none" stroke="none"/><text fill="#000000" stroke="none" font-family="Arial" font-size="13px" font-style="normal" font-weight="normal" text-decoration="none" x="189" y="2458">Client</text><text fill="#000000" stroke="none" font-family="Arial" font-size="13px" font-style="normal" font-weight="normal" text-decoration="none" x="189" y="2471">executes</text><text fill="#000000" stroke="none" font-family="Arial" font-size="13px" font-style="normal" font-weight="normal" text-decoration="none" x="189" y="2484">payment</text></g></g><g transform="translate(-84,-2070) scale(1,1)"><rect fill="#C0C0C0" stroke="none" x="303" y="2135" width="63.18994140625" height="50" opacity="0.2"/></g><g transform="translate(-84,-2070) scale(1,1)"><rect fill="#ffffff" stroke="none" x="296" y="2128" width="63.18994140625" height="50"/></g><g transform="translate(-84,-2070) scale(1,1)"><path fill="none" stroke="#000000" d="M 296 2128 L 359.18994140625 2128 L 359.18994140625 2178 L 296 2178 L 296 2128 Z Z" stroke-miterlimit="10"/></g><g transform="translate(-84,-2070) scale(1,1)"><rect fill="#ffffff" stroke="none" x="296" y="2128" width="63.18994140625" height="50"/></g><g transform="translate(-84,-2070) scale(1,1)"><path fill="none" stroke="#000000" d="M 296 2128 L 359.18994140625 2128 L 359.18994140625 2178 L 296 2178 L 296 2128 Z Z" stroke-miterlimit="10"/></g><g transform="translate(-84,-2070) scale(1,1)"><g><path fill="none" stroke="none"/><text fill="#000000" stroke="none" font-family="Arial" font-size="13px" font-style="normal" font-weight="bold" text-decoration="none" x="301.944091796875" y="2147.5">Payment</text><path fill="none" stroke="#000000" d="M 354.68994140625 2147.5 L 300.5 2147.5" stroke-miterlimit="10"/><text fill="#000000" stroke="none" font-family="Arial" font-size="13px" font-style="normal" font-weight="bold" text-decoration="none" x="305.924072265625" y="2160.5">System</text><path fill="none" stroke="#000000" d="M 350.719482421875 2160.5 L 304.470458984375 2160.5" stroke-miterlimit="10"/><text fill="#000000" stroke="none" font-family="Arial" font-size="13px" font-style="normal" font-weight="bold" text-decoration="none" x="303.391357421875" y="2173.5">Provider</text><path fill="none" stroke="#000000" d="M 353.96630859375 2173.5 L 301.2236328125 2173.5" stroke-miterlimit="10"/></g></g><g transform="translate(-84,-2070) scale(1,1)"><rect fill="#C0C0C0" stroke="none" x="447" y="2191" width="66.0908203125" height="37" opacity="0.2"/></g><g transform="translate(-84,-2070) scale(1,1)"><rect fill="#ffffff" stroke="none" x="440" y="2184" width="66.0908203125" height="37"/></g><g transform="translate(-84,-2070) scale(1,1)"><path fill="none" stroke="#000000" d="M 440 2184 L 506.0908203125 2184 L 506.0908203125 2221 L 440 2221 L 440 2184 Z Z" stroke-miterlimit="10"/></g><g transform="translate(-84,-2070) scale(1,1)"><rect fill="#ffffff" stroke="none" x="440" y="2184" width="66.0908203125" height="37"/></g><g transform="translate(-84,-2070) scale(1,1)"><path fill="none" stroke="#000000" d="M 440 2184 L 506.0908203125 2184 L 506.0908203125 2221 L 440 2221 L 440 2184 Z Z" stroke-miterlimit="10"/></g><g transform="translate(-84,-2070) scale(1,1)"><g><path fill="none" stroke="none"/><text fill="#000000" stroke="none" font-family="Arial" font-size="13px" font-style="normal" font-weight="bold" text-decoration="none" x="458.956787109375" y="2203.5">Card</text><path fill="none" stroke="#000000" d="M 487.8544921875 2203.5 L 458.236328125 2203.5" stroke-miterlimit="10"/><text fill="#000000" stroke="none" font-family="Arial" font-size="13px" font-style="normal" font-weight="bold" text-decoration="none" x="445.950439453125" y="2216.5">Schemes</text><path fill="none" stroke="#000000" d="M 501.5908203125 2216.5 L 444.5 2216.5" stroke-miterlimit="10"/></g></g><g transform="translate(-84,-2070) scale(1,1)"><path fill="none" stroke="#000000" d="M 342 2367 L 329 2179" stroke-miterlimit="10"/></g><g transform="translate(-84,-2070) scale(1,1)"><path fill="none" stroke="#000000" d="M 356 2367 L 459 2222" stroke-miterlimit="10"/></g><g transform="translate(-84,-2070) scale(1,1)"><path fill="none" stroke="#000000" d="M 343 2463 L 343 2406" stroke-miterlimit="10"/></g><g transform="translate(-84,-2070) scale(1,1)"><path fill="none" stroke="#000000" d="M 347.209517756016 2416.162674857624 L 343 2406 L 338.790482243984 2416.162674857624" stroke-miterlimit="10"/></g><g transform="translate(-84,-2070) scale(1,1)"><rect fill="#C0C0C0" stroke="none" x="319" y="2375" width="63.18994140625" height="37" opacity="0.2"/></g><g transform="translate(-84,-2070) scale(1,1)"><rect fill="#ffffff" stroke="none" x="312" y="2368" width="63.18994140625" height="37"/></g><g transform="translate(-84,-2070) scale(1,1)"><path fill="none" stroke="#000000" d="M 312 2368 L 375.18994140625 2368 L 375.18994140625 2405 L 312 2405 L 312 2368 Z Z" stroke-miterlimit="10"/></g><g transform="translate(-84,-2070) scale(1,1)"><rect fill="#ffffff" stroke="none" x="312" y="2368" width="63.18994140625" height="37"/></g><g transform="translate(-84,-2070) scale(1,1)"><path fill="none" stroke="#000000" d="M 312 2368 L 375.18994140625 2368 L 375.18994140625 2405 L 312 2405 L 312 2368 Z Z" stroke-miterlimit="10"/></g><g transform="translate(-84,-2070) scale(1,1)"><g><path fill="none" stroke="none"/><text fill="#000000" stroke="none" font-family="Arial" font-size="13px" font-style="normal" font-weight="bold" text-decoration="none" x="317.944091796875" y="2387.5">Payment</text><path fill="none" stroke="#000000" d="M 370.68994140625 2387.5 L 316.5 2387.5" stroke-miterlimit="10"/><text fill="#000000" stroke="none" font-family="Arial" font-size="13px" font-style="normal" font-weight="bold" text-decoration="none" x="318.66455078125" y="2400.5">executor</text><path fill="none" stroke="#000000" d="M 370.68994140625 2400.5 L 316.5 2400.5" stroke-miterlimit="10"/></g></g><g transform="translate(-84,-2070) scale(1,1)"><rect fill="#C0C0C0" stroke="none" x="681" y="2423" width="76.80810546875" height="44" opacity="0.2"/></g><g transform="translate(-84,-2070) scale(1,1)"><rect fill="#ffffff" stroke="none" x="674" y="2416" width="76.80810546875" height="44"/></g><g transform="translate(-84,-2070) scale(1,1)"><path fill="none" stroke="#000000" d="M 674 2416 L 750.80810546875 2416 L 750.80810546875 2460 L 674 2460 L 674 2416 Z Z" stroke-miterlimit="10"/></g><g transform="translate(-84,-2070) scale(1,1)"><rect fill="#ffffff" stroke="none" x="664" y="2423" width="20" height="10"/></g><g transform="translate(-84,-2070) scale(1,1)"><path fill="none" stroke="#000000" d="M 664 2423 L 684 2423 L 684 2433 L 664 2433 L 664 2423 Z Z" stroke-miterlimit="10"/></g><g transform="translate(-84,-2070) scale(1,1)"><rect fill="#ffffff" stroke="none" x="664" y="2443" width="20" height="10"/></g><g transform="translate(-84,-2070) scale(1,1)"><path fill="none" stroke="#000000" d="M 664 2443 L 684 2443 L 684 2453 L 664 2453 L 664 2443 Z Z" stroke-miterlimit="10"/></g><g transform="translate(-84,-2070) scale(1,1)"><g><path fill="none" stroke="none"/><text fill="#000000" stroke="none" font-family="Arial" font-size="13px" font-style="normal" font-weight="bold" text-decoration="none" x="689.5791015625" y="2435.5">Database</text><path fill="none" stroke="#000000" d="M 746.30810546875 2435.5 L 688.5 2435.5" stroke-miterlimit="10"/></g></g><g transform="translate(-84,-2070) scale(1,1)"><path fill="none" stroke="#000000" d="M 376 2391 L 663 2432" stroke-miterlimit="10"/></g><g transform="translate(-84,-2070) scale(1,1)"><g><path fill="none" stroke="none"/><text fill="#000000" stroke="none" font-family="Arial" font-size="13px" font-style="normal" font-weight="normal" text-decoration="none" x="461" y="2386">Payment order</text><text fill="#000000" stroke="none" font-family="Arial" font-size="13px" font-style="normal" font-weight="normal" text-decoration="none" x="461" y="2399">stored</text></g></g><g transform="translate(-84,-2070) scale(1,1)"><g><path fill="none" stroke="none"/><text fill="#000000" stroke="none" font-family="Arial" font-size="13px" font-style="normal" font-weight="normal" text-decoration="none" x="261" y="2434">Payment</text><text fill="#000000" stroke="none" font-family="Arial" font-size="13px" font-style="normal" font-weight="normal" text-decoration="none" x="261" y="2447">order</text><text fill="#000000" stroke="none" font-family="Arial" font-size="13px" font-style="normal" font-weight="normal" text-decoration="none" x="261" y="2460">confirmed</text></g></g><g transform="translate(-84,-2070) scale(1,1)"><rect fill="#C0C0C0" stroke="none" x="495" y="2503" width="56.68359375" height="24" opacity="0.2"/></g><g transform="translate(-84,-2070) scale(1,1)"><rect fill="#ffffff" stroke="none" x="488" y="2496" width="56.68359375" height="24"/></g><g transform="translate(-84,-2070) scale(1,1)"><path fill="none" stroke="#000000" d="M 488 2496 L 544.68359375 2496 L 544.68359375 2520 L 488 2520 L 488 2496 Z Z" stroke-miterlimit="10"/></g><g transform="translate(-84,-2070) scale(1,1)"><rect fill="#ffffff" stroke="none" x="488" y="2496" width="56.68359375" height="24"/></g><g transform="translate(-84,-2070) scale(1,1)"><path fill="none" stroke="#000000" d="M 488 2496 L 544.68359375 2496 L 544.68359375 2520 L 488 2520 L 488 2496 Z Z" stroke-miterlimit="10"/></g><g transform="translate(-84,-2070) scale(1,1)"><g><path fill="none" stroke="none"/><text fill="#000000" stroke="none" font-family="Arial" font-size="13px" font-style="normal" font-weight="bold" text-decoration="none" x="498.52392578125" y="2515.5">Wallet</text><path fill="none" stroke="#000000" d="M 535.241943359375 2515.5 L 497.441650390625 2515.5" stroke-miterlimit="10"/></g></g><g transform="translate(-84,-2070) scale(1,1)"><path fill="none" stroke="#000000" d="M 376 2475 L 487 2450" stroke-miterlimit="10"/></g><g transform="translate(-84,-2070) scale(1,1)"><path fill="none" stroke="#000000" d="M 478.01059450940267 2456.3396047925416 L 487 2450 L 476.160752879914 2448.126307957612" stroke-miterlimit="10"/></g><g transform="translate(-84,-2070) scale(1,1)"><rect fill="#C0C0C0" stroke="none" x="495" y="2439" width="56.68359375" height="24" opacity="0.2"/></g><g transform="translate(-84,-2070) scale(1,1)"><rect fill="#ffffff" stroke="none" x="488" y="2432" width="56.68359375" height="24"/></g><g transform="translate(-84,-2070) scale(1,1)"><path fill="none" stroke="#000000" d="M 488 2432 L 544.68359375 2432 L 544.68359375 2456 L 488 2456 L 488 2432 Z Z" stroke-miterlimit="10"/></g><g transform="translate(-84,-2070) scale(1,1)"><rect fill="#ffffff" stroke="none" x="488" y="2432" width="56.68359375" height="24"/></g><g transform="translate(-84,-2070) scale(1,1)"><path fill="none" stroke="#000000" d="M 488 2432 L 544.68359375 2432 L 544.68359375 2456 L 488 2456 L 488 2432 Z Z" stroke-miterlimit="10"/></g><g transform="translate(-84,-2070) scale(1,1)"><g><path fill="none" stroke="none"/><text fill="#000000" stroke="none" font-family="Arial" font-size="13px" font-style="normal" font-weight="bold" text-decoration="none" x="496.102294921875" y="2451.5">Ledger</text><path fill="none" stroke="#000000" d="M 538.0126953125 2451.5 L 494.6708984375 2451.5" stroke-miterlimit="10"/></g></g><g transform="translate(-84,-2070) scale(1,1)"><path fill="none" stroke="#000000" d="M 376 2487 L 487 2504" stroke-miterlimit="10"/></g><g transform="translate(-84,-2070) scale(1,1)"><path fill="none" stroke="#000000" d="M 476.31718548678793 2506.622493865828 L 487 2504 L 477.59172621940263 2498.300492611697" stroke-miterlimit="10"/></g><g transform="translate(-84,-2070) scale(1,1)"><path fill="none" stroke="#000000" d="M 546 2443 L 663 2439" stroke-miterlimit="10"/></g><g transform="translate(-84,-2070) scale(1,1)"><path fill="none" stroke="#000000" d="M 546 2497 L 663 2454" stroke-miterlimit="10"/></g><g transform="translate(-84,-2070) scale(1,1)"><g><path fill="none" stroke="none"/><text fill="#000000" stroke="none" font-family="Arial" font-size="13px" font-style="normal" font-weight="normal" text-decoration="none" x="365" y="2522">Account balance</text><text fill="#000000" stroke="none" font-family="Arial" font-size="13px" font-style="normal" font-weight="normal" text-decoration="none" x="365" y="2535">update</text></g></g><g transform="translate(-84,-2070) scale(1,1)"><g><path fill="none" stroke="none"/><text fill="#000000" stroke="none" font-family="Arial" font-size="13px" font-style="normal" font-weight="normal" text-decoration="none" x="381" y="2442">Payment record</text><text fill="#000000" stroke="none" font-family="Arial" font-size="13px" font-style="normal" font-weight="normal" text-decoration="none" x="381" y="2455">stored</text></g></g></g></svg>