<?xml version="1.0" encoding="utf-8"?>
<!-- Generator: Adobe Illustrator 27.0.0, SVG Export Plug-In . SVG Version: 6.00 Build 0)  -->
<svg version="1.1" id="Layer_1" xmlns="http://www.w3.org/2000/svg" xmlns:xlink="http://www.w3.org/1999/xlink" x="0px" y="0px"
	 viewBox="0 0 1812.4 1140" style="enable-background:new 0 0 1812.4 1140;" xml:space="preserve">
<style type="text/css">
	.st0{fill:#00B799;}
	.st1{fill:none;stroke:#000000;stroke-miterlimit:10;}
	.st2{font-family:'ArialMT';}
	.st3{font-size:42px;}
	.st4{fill:#49FFE0;}
	.st5{font-family:'CourierNewPSMT';}
	.st6{font-size:32px;}
	.st7{fill:#FFFF00;}
	.st8{font-size:20px;}
	.st9{fill:#D8FFF8;}
	.st10{font-size:24px;}
	.st11{fill:#FFADAD;}
	.st12{fill:#ADADFF;}
	.st13{fill:#FFD6AD;}
	.st14{font-size:28px;}
	.st15{fill:#FF5656;}
	.st16{fill:#FF38FF;}
	.st17{fill:#E2E2E2;}
	.st18{opacity:0.23;fill:#BF2000;stroke:#000000;stroke-width:3;stroke-miterlimit:10;}
</style>
<g>
	<g transform="translate(-102,-22) scale(1,1)">
		<rect x="712" y="544" class="st0" width="344" height="137"/>
	</g>
	<g transform="translate(-102,-22) scale(1,1)">
		<path class="st1" d="M712,544h344v137H712V544z"/>
	</g>
	<g transform="translate(-102,-22) scale(1,1)">
		<g>
			<path class="st1" d="M0,0"/>
			<text transform="matrix(1 0 0 1 738.6171 612)" class="st2 st3">Main layer of the</text>
			<text transform="matrix(1 0 0 1 783.494 654)" class="st2 st3">Application</text>
		</g>
	</g>
	<g transform="translate(-102,-22) scale(1,1)">
		<rect x="344" y="424" class="st4" width="277.8" height="83"/>
	</g>
	<g transform="translate(-102,-22) scale(1,1)">
		<path class="st1" d="M344,424h277.8v83H344V424z"/>
	</g>
	<g transform="translate(-102,-22) scale(1,1)">
		<g>
			<path class="st1" d="M0,0"/>
			<text transform="matrix(1 0 0 1 348.5 465)" class="st5 st6">Authentication</text>
			<text transform="matrix(1 0 0 1 415.7109 497)" class="st5 st6">segment</text>
		</g>
	</g>
	<g transform="translate(-102,-22) scale(1,1)">
		<rect x="112" y="312" class="st7" width="168" height="71"/>
	</g>
	<g transform="translate(-102,-22) scale(1,1)">
		<path class="st1" d="M112,312h168v71H112V312z"/>
	</g>
	<g transform="translate(-102,-22) scale(1,1)">
		<g>
			<path class="st1" d="M0,0"/>
			<text transform="matrix(1 0 0 1 155.4238 337)" class="st2 st8">Demand:</text>
			<text transform="matrix(1 0 0 1 125.7363 357)" class="st2 st8">Costumer&apos;s part</text>
			<text transform="matrix(1 0 0 1 151.5176 377)" class="st2 st8">of the app</text>
		</g>
	</g>
	<g transform="translate(-102,-22) scale(1,1)">
		<rect x="112" y="432" class="st7" width="168" height="56"/>
	</g>
	<g transform="translate(-102,-22) scale(1,1)">
		<path class="st1" d="M112,432h168v56H112V432z"/>
	</g>
	<g transform="translate(-102,-22) scale(1,1)">
		<g>
			<path class="st1" d="M0,0"/>
			<text transform="matrix(1 0 0 1 126.293 457)" class="st2 st8">Supply: Driver&apos;s</text>
			<text transform="matrix(1 0 0 1 131.5078 477)" class="st2 st8">part of the app</text>
		</g>
	</g>
	<g transform="translate(-102,-22) scale(1,1)">
		<path class="st1" d="M480,512v104h232"/>
	</g>
	<g transform="translate(-102,-22) scale(1,1)">
		<path d="M701.8,620.2L712,616l-10.2-4.2"/>
	</g>
	<g transform="translate(-102,-22) scale(1,1)">
		<path class="st1" d="M701.8,620.2L712,616l-10.2-4.2V620.2"/>
	</g>
	<g transform="translate(-102,-22) scale(1,1)">
		<path class="st1" d="M280,464h64"/>
	</g>
	<g transform="translate(-102,-22) scale(1,1)">
		<path d="M333.8,468.2L344,464l-10.2-4.2"/>
	</g>
	<g transform="translate(-102,-22) scale(1,1)">
		<path class="st1" d="M333.8,468.2L344,464l-10.2-4.2V468.2"/>
	</g>
	<g transform="translate(-102,-22) scale(1,1)">
		<path class="st1" d="M280,344h200v80"/>
	</g>
	<g transform="translate(-102,-22) scale(1,1)">
		<path d="M475.8,413.8L480,424l4.2-10.2"/>
	</g>
	<g transform="translate(-102,-22) scale(1,1)">
		<path class="st1" d="M475.8,413.8L480,424l4.2-10.2H475.8"/>
	</g>
	<g transform="translate(-102,-22) scale(1,1)">
		<rect x="1272" y="832" class="st9" width="181.8" height="107"/>
	</g>
	<g transform="translate(-102,-22) scale(1,1)">
		<path class="st1" d="M1272,832h181.8v107H1272V832z"/>
	</g>
	<g transform="translate(-102,-22) scale(1,1)">
		<g>
			<path class="st1" d="M0,0"/>
			<text transform="matrix(1 0 0 1 1298.1035 861)" class="st5 st10">Analytics</text>
			<text transform="matrix(1 0 0 1 1341.3105 885)" class="st5 st10">and</text>
			<text transform="matrix(1 0 0 1 1276.5 909)" class="st5 st10">Optimization</text>
			<text transform="matrix(1 0 0 1 1312.5059 933)" class="st5 st10">segment</text>
		</g>
	</g>
	<g transform="translate(-102,-22) scale(1,1)">
		<rect x="1280" y="992" class="st11" width="168" height="56"/>
	</g>
	<g transform="translate(-102,-22) scale(1,1)">
		<path class="st1" d="M1280,992h168v56h-168V992z"/>
	</g>
	<g transform="translate(-102,-22) scale(1,1)">
		<g>
			<path class="st1" d="M0,0"/>
			<text transform="matrix(1 0 0 1 1310.6309 1017)" class="st2 st8">Ratings and</text>
			<text transform="matrix(1 0 0 1 1306.7539 1037)" class="st2 st8">Performance</text>
		</g>
	</g>
	<g transform="translate(-102,-22) scale(1,1)">
		<rect x="1280" y="1096" class="st11" width="168" height="56"/>
	</g>
	<g transform="translate(-102,-22) scale(1,1)">
		<path class="st1" d="M1280,1096h168v56h-168V1096z"/>
	</g>
	<g transform="translate(-102,-22) scale(1,1)">
		<g>
			<path class="st1" d="M0,0"/>
			<text transform="matrix(1 0 0 1 1320.084 1134.0001)" class="st2 st8">Feedback</text>
		</g>
	</g>
	<g transform="translate(-102,-22) scale(1,1)">
		<path class="st1" d="M1361,832l-1-168"/>
	</g>
	<g transform="translate(-102,-22) scale(1,1)">
		<path d="M1356.7,821.9l4.3,10.1l4.1-10.2"/>
	</g>
	<g transform="translate(-102,-22) scale(1,1)">
		<path class="st1" d="M1356.7,821.9l4.3,10.1l4.1-10.2L1356.7,821.9"/>
	</g>
	<g transform="translate(-102,-22) scale(1,1)">
		<path class="st1" d="M1272,880h-72v240h80"/>
	</g>
	<g transform="translate(-102,-22) scale(1,1)">
		<path d="M1269.8,1124.2l10.2-4.2l-10.2-4.2"/>
	</g>
	<g transform="translate(-102,-22) scale(1,1)">
		<path class="st1" d="M1269.8,1124.2l10.2-4.2l-10.2-4.2V1124.2"/>
	</g>
	<g transform="translate(-102,-22) scale(1,1)">
		<path class="st1" d="M1280,1016h-80"/>
	</g>
	<g transform="translate(-102,-22) scale(1,1)">
		<path d="M1269.8,1020.2l10.2-4.2l-10.2-4.2"/>
	</g>
	<g transform="translate(-102,-22) scale(1,1)">
		<path class="st1" d="M1269.8,1020.2l10.2-4.2l-10.2-4.2V1020.2"/>
	</g>
	<g transform="translate(-102,-22) scale(1,1)">
		<rect x="552" y="832" class="st4" width="181.8" height="75"/>
	</g>
	<g transform="translate(-102,-22) scale(1,1)">
		<path class="st1" d="M552,832h181.8v75H552V832z"/>
	</g>
	<g transform="translate(-102,-22) scale(1,1)">
		<g>
			<path class="st1" d="M0,0"/>
			<text transform="matrix(1 0 0 1 594.9062 869)" class="st5 st6">Alert</text>
			<text transform="matrix(1 0 0 1 575.7031 901)" class="st5 st6">systems</text>
		</g>
	</g>
	<g transform="translate(-102,-22) scale(1,1)">
		<path class="st1" d="M992,680v152"/>
	</g>
	<g transform="translate(-102,-22) scale(1,1)">
		<path d="M987.8,821.8L992,832l4.2-10.2"/>
	</g>
	<g transform="translate(-102,-22) scale(1,1)">
		<path class="st1" d="M987.8,821.8L992,832l4.2-10.2H987.8"/>
	</g>
	<g transform="translate(-102,-22) scale(1,1)">
		<rect x="584" y="952" class="st12" width="152" height="71"/>
	</g>
	<g transform="translate(-102,-22) scale(1,1)">
		<path class="st1" d="M584,952h152v71H584V952z"/>
	</g>
	<g transform="translate(-102,-22) scale(1,1)">
		<g>
			<path class="st1" d="M0,0"/>
			<text transform="matrix(1 0 0 1 589.4043 987)" class="st2 st8">Internal (Stages</text>
			<text transform="matrix(1 0 0 1 608.3057 1007)" class="st2 st8">of the Ride)</text>
		</g>
	</g>
	<g transform="translate(-102,-22) scale(1,1)">
		<rect x="584" y="1064" class="st12" width="152" height="56"/>
	</g>
	<g transform="translate(-102,-22) scale(1,1)">
		<path class="st1" d="M584,1064h152v56H584V1064z"/>
	</g>
	<g transform="translate(-102,-22) scale(1,1)">
		<g>
			<path class="st1" d="M0,0"/>
			<text transform="matrix(1 0 0 1 623.3154 1092)" class="st2 st8">External</text>
			<text transform="matrix(1 0 0 1 598.8721 1112)" class="st2 st8">(Notifications)</text>
		</g>
	</g>
	<g transform="translate(-102,-22) scale(1,1)">
		<path class="st1" d="M552,864h-16v224l48,1"/>
	</g>
	<g transform="translate(-102,-22) scale(1,1)">
		<path d="M573.8,1093l10.2-4l-10.1-4.4"/>
	</g>
	<g transform="translate(-102,-22) scale(1,1)">
		<path class="st1" d="M573.8,1093l10.2-4l-10.1-4.4L573.8,1093"/>
	</g>
	<g transform="translate(-102,-22) scale(1,1)">
		<path class="st1" d="M536,984h48"/>
	</g>
	<g transform="translate(-102,-22) scale(1,1)">
		<path d="M573.8,988.2L584,984l-10.2-4.2"/>
	</g>
	<g transform="translate(-102,-22) scale(1,1)">
		<path class="st1" d="M573.8,988.2L584,984l-10.2-4.2V988.2"/>
	</g>
	<g transform="translate(-102,-22) scale(1,1)">
		<path class="st1" d="M760,680v57l-120-1v96"/>
	</g>
	<g transform="translate(-102,-22) scale(1,1)">
		<path d="M635.8,821.8L640,832l4.2-10.2"/>
	</g>
	<g transform="translate(-102,-22) scale(1,1)">
		<path class="st1" d="M635.8,821.8L640,832l4.2-10.2H635.8"/>
	</g>
	<g transform="translate(-102,-22) scale(1,1)">
		<rect x="896" y="832" class="st4" width="201" height="75"/>
	</g>
	<g transform="translate(-102,-22) scale(1,1)">
		<path class="st1" d="M896,832h201v75H896V832z"/>
	</g>
	<g transform="translate(-102,-22) scale(1,1)">
		<g>
			<path class="st1" d="M0,0"/>
			<text transform="matrix(1 0 0 1 929.3047 869)" class="st5 st6">Payment</text>
			<text transform="matrix(1 0 0 1 900.5 901)" class="st5 st6">management</text>
		</g>
	</g>
	<g transform="translate(-102,-22) scale(1,1)">
		<path class="st1" d="M880,544V184h64"/>
	</g>
	<g transform="translate(-102,-22) scale(1,1)">
		<path d="M933.8,188.2L944,184l-10.2-4.2"/>
	</g>
	<g transform="translate(-102,-22) scale(1,1)">
		<path class="st1" d="M933.8,188.2L944,184l-10.2-4.2V188.2"/>
	</g>
	<g transform="translate(-102,-22) scale(1,1)">
		<rect x="1232" y="112" class="st13" width="224" height="107"/>
	</g>
	<g transform="translate(-102,-22) scale(1,1)">
		<path class="st1" d="M1232,112h224v107h-224V112z"/>
	</g>
	<g transform="translate(-102,-22) scale(1,1)">
		<g>
			<path class="st1" d="M0,0"/>
			<text transform="matrix(1 0 0 1 1260.7451 165)" class="st2 st14">Matchmaking</text>
			<text transform="matrix(1 0 0 1 1262.2832 193)" class="st2 st14">management</text>
		</g>
	</g>
	<g transform="translate(-102,-22) scale(1,1)">
		<rect x="1520" y="136" class="st15" width="225" height="64"/>
	</g>
	<g transform="translate(-102,-22) scale(1,1)">
		<path class="st1" d="M1520,136h225v64h-225V136z"/>
	</g>
	<g transform="translate(-102,-22) scale(1,1)">
		<g>
			<path class="st1" d="M0,0"/>
			<text transform="matrix(1 0 0 1 1579.8184 168)" class="st2 st10">Maps and</text>
			<text transform="matrix(1 0 0 1 1550.4688 192)" class="st2 st10">Geolocalization</text>
		</g>
	</g>
	<g transform="translate(-102,-22) scale(1,1)">
		<path class="st1" d="M1456,168h64"/>
	</g>
	<g transform="translate(-102,-22) scale(1,1)">
		<path d="M1509.8,172.2l10.2-4.2l-10.2-4.2"/>
	</g>
	<g transform="translate(-102,-22) scale(1,1)">
		<path class="st1" d="M1509.8,172.2l10.2-4.2l-10.2-4.2V172.2"/>
	</g>
	<g transform="translate(-102,-22) scale(1,1)">
		<rect x="944" y="136" class="st4" width="225" height="107"/>
	</g>
	<g transform="translate(-102,-22) scale(1,1)">
		<path class="st1" d="M944,136h225v107H944V136z"/>
	</g>
	<g transform="translate(-102,-22) scale(1,1)">
		<g>
			<path class="st1" d="M0,0"/>
			<text transform="matrix(1 0 0 1 979.7051 173)" class="st5 st6">Rides or</text>
			<text transform="matrix(1 0 0 1 1008.5098 205)" class="st5 st6">Trips</text>
			<text transform="matrix(1 0 0 1 960.502 237)" class="st5 st6">(Activity)</text>
		</g>
	</g>
	<g transform="translate(-102,-22) scale(1,1)">
		<path class="st1" d="M1168,168h64"/>
	</g>
	<g transform="translate(-102,-22) scale(1,1)">
		<path d="M1221.8,172.2l10.2-4.2l-10.2-4.2"/>
	</g>
	<g transform="translate(-102,-22) scale(1,1)">
		<path class="st1" d="M1221.8,172.2l10.2-4.2l-10.2-4.2V172.2"/>
	</g>
	<g transform="translate(-102,-22) scale(1,1)">
		<rect x="1232" y="32" class="st13" width="224" height="51"/>
	</g>
	<g transform="translate(-102,-22) scale(1,1)">
		<path class="st1" d="M1232,32h224v51h-224V32z"/>
	</g>
	<g transform="translate(-102,-22) scale(1,1)">
		<g>
			<path class="st1" d="M0,0"/>
			<text transform="matrix(1 0 0 1 1259.1729 71)" class="st2 st14">Ride Request</text>
		</g>
	</g>
	<g transform="translate(-102,-22) scale(1,1)">
		<path class="st1" d="M1056,136V56h176"/>
	</g>
	<g transform="translate(-102,-22) scale(1,1)">
		<path d="M1221.8,60.2L1232,56l-10.2-4.2"/>
	</g>
	<g transform="translate(-102,-22) scale(1,1)">
		<path class="st1" d="M1221.8,60.2L1232,56l-10.2-4.2V60.2"/>
	</g>
	<g transform="translate(-102,-22) scale(1,1)">
		<rect x="1232" y="256" class="st13" width="224" height="67"/>
	</g>
	<g transform="translate(-102,-22) scale(1,1)">
		<path class="st1" d="M1232,256h224v67h-224V256z"/>
	</g>
	<g transform="translate(-102,-22) scale(1,1)">
		<g>
			<path class="st1" d="M0,0"/>
			<text transform="matrix(1 0 0 1 1239.7109 303)" class="st2 st14">State of the Ride</text>
		</g>
	</g>
	<g transform="translate(-102,-22) scale(1,1)">
		<path class="st1" d="M1128,240v48h104"/>
	</g>
	<g transform="translate(-102,-22) scale(1,1)">
		<path d="M1221.8,292.2l10.2-4.2l-10.2-4.2"/>
	</g>
	<g transform="translate(-102,-22) scale(1,1)">
		<path class="st1" d="M1221.8,292.2l10.2-4.2l-10.2-4.2V292.2"/>
	</g>
	<g transform="translate(-102,-22) scale(1,1)">
		<rect x="1528" y="256" class="st16" width="225" height="64"/>
	</g>
	<g transform="translate(-102,-22) scale(1,1)">
		<path class="st1" d="M1528,256h225v64h-225V256z"/>
	</g>
	<g transform="translate(-102,-22) scale(1,1)">
		<g>
			<path class="st1" d="M0,0"/>
			<text transform="matrix(1 0 0 1 1545.1035 300)" class="st2 st10">Livefeed and data</text>
		</g>
	</g>
	<g transform="translate(-102,-22) scale(1,1)">
		<path class="st1" d="M1464,296L1464,296"/>
	</g>
	<g transform="translate(-102,-22) scale(1,1)">
		<path class="st1" d="M1456,288l71,1"/>
	</g>
	<g transform="translate(-102,-22) scale(1,1)">
		<path d="M1516.8,293.1l10.2-4.1l-10.1-4.4"/>
	</g>
	<g transform="translate(-102,-22) scale(1,1)">
		<path class="st1" d="M1516.8,293.1l10.2-4.1l-10.1-4.4L1516.8,293.1"/>
	</g>
	<g transform="translate(-102,-22) scale(1,1)">
		<path class="st1" d="M1080,240v144h152"/>
	</g>
	<g transform="translate(-102,-22) scale(1,1)">
		<path d="M1221.8,388.2l10.2-4.2l-10.2-4.2"/>
	</g>
	<g transform="translate(-102,-22) scale(1,1)">
		<path class="st1" d="M1221.8,388.2l10.2-4.2l-10.2-4.2V388.2"/>
	</g>
	<g transform="translate(-102,-22) scale(1,1)">
		<rect x="1232" y="352" class="st13" width="224" height="67"/>
	</g>
	<g transform="translate(-102,-22) scale(1,1)">
		<path class="st1" d="M1232,352h224v67h-224V352z"/>
	</g>
	<g transform="translate(-102,-22) scale(1,1)">
		<g>
			<path class="st1" d="M0,0"/>
			<text transform="matrix(1 0 0 1 1248.29 399)" class="st2 st14">Finalized Rides</text>
		</g>
	</g>
	<g transform="translate(-102,-22) scale(1,1)">
		<path class="st1" d="M1056,616l136,1"/>
	</g>
	<g transform="translate(-102,-22) scale(1,1)">
		<path d="M1181.8,621.1l10.2-4.1l-10.1-4.3"/>
	</g>
	<g transform="translate(-102,-22) scale(1,1)">
		<path class="st1" d="M1181.8,621.1l10.2-4.1l-10.1-4.3L1181.8,621.1"/>
	</g>
	<g transform="translate(-102,-22) scale(1,1)">
		<rect x="1192" y="560" class="st4" width="335.5" height="107"/>
	</g>
	<g transform="translate(-102,-22) scale(1,1)">
		<path class="st1" d="M1192,560h335.5v107H1192V560z"/>
	</g>
	<g transform="translate(-102,-22) scale(1,1)">
		<g>
			<path class="st1" d="M0,0"/>
			<text transform="matrix(1 0 0 1 1196.5 629)" class="st5 st6">Servers/Databases</text>
		</g>
	</g>
	<g transform="translate(-102,-22) scale(1,1)">
		<rect x="1672" y="584" class="st9" width="128" height="67"/>
	</g>
	<g transform="translate(-102,-22) scale(1,1)">
		<path class="st1" d="M1672,584h128v67h-128V584z"/>
	</g>
	<g transform="translate(-102,-22) scale(1,1)">
		<g>
			<path class="st1" d="M0,0"/>
			<text transform="matrix(1 0 0 1 1699.4414 631)" class="st2 st14">Users</text>
		</g>
	</g>
	<g transform="translate(-102,-22) scale(1,1)">
		<path class="st1" d="M992,248v232h744v104"/>
	</g>
	<g transform="translate(-102,-22) scale(1,1)">
		<path d="M996.2,258.2L992,248l-4.2,10.2"/>
	</g>
	<g transform="translate(-102,-22) scale(1,1)">
		<path class="st1" d="M996.2,258.2L992,248l-4.2,10.2H996.2"/>
	</g>
	<g transform="translate(-102,-22) scale(1,1)">
		<rect x="1576" y="800" class="st17" width="128" height="67"/>
	</g>
	<g transform="translate(-102,-22) scale(1,1)">
		<path class="st1" d="M1576,800h128v67h-128V800z"/>
	</g>
	<g transform="translate(-102,-22) scale(1,1)">
		<g>
			<path class="st1" d="M0,0"/>
			<text transform="matrix(1 0 0 1 1595.6689 847)" class="st2 st14">Drivers</text>
		</g>
	</g>
	<g transform="translate(-102,-22) scale(1,1)">
		<rect x="1760" y="800" class="st17" width="144.4" height="67"/>
	</g>
	<g transform="translate(-102,-22) scale(1,1)">
		<path class="st1" d="M1760,800h144.4v67H1760V800z"/>
	</g>
	<g transform="translate(-102,-22) scale(1,1)">
		<g>
			<path class="st1" d="M0,0"/>
			<text transform="matrix(1 0 0 1 1764.5 847)" class="st2 st14">Costumers</text>
		</g>
	</g>
	<g transform="translate(-102,-22) scale(1,1)">
		<path class="st1" d="M1704,648v72h-64v80"/>
	</g>
	<g transform="translate(-102,-22) scale(1,1)">
		<path d="M1635.8,789.8l4.2,10.2l4.2-10.2"/>
	</g>
	<g transform="translate(-102,-22) scale(1,1)">
		<path class="st1" d="M1635.8,789.8l4.2,10.2l4.2-10.2H1635.8"/>
	</g>
	<g transform="translate(-102,-22) scale(1,1)">
		<path class="st1" d="M1760,648v72h72v79"/>
	</g>
	<g transform="translate(-102,-22) scale(1,1)">
		<path d="M1827.8,788.8l4.2,10.2l4.2-10.2"/>
	</g>
	<g transform="translate(-102,-22) scale(1,1)">
		<path class="st1" d="M1827.8,788.8l4.2,10.2l4.2-10.2H1827.8"/>
	</g>
	<g transform="translate(-102,-22) scale(1,1)">
		<path class="st1" d="M1528,616h144"/>
	</g>
	<g transform="translate(-102,-22) scale(1,1)">
		<path d="M1661.8,620.2l10.2-4.2l-10.2-4.2"/>
	</g>
	<g transform="translate(-102,-22) scale(1,1)">
		<path class="st1" d="M1661.8,620.2l10.2-4.2l-10.2-4.2V620.2"/>
	</g>
	<rect x="1392.4" y="93.7" class="st18" width="294.5" height="231.8"/>
	<rect x="1463.6" y="529.1" class="st18" width="347.8" height="347.8"/>
	<rect x="746.9" y="771.1" class="st18" width="294.5" height="145.9"/>
	<rect x="1079.8" y="771.1" class="st18" width="294.5" height="368.9"/>
</g>
</svg>
