<?xml version="1.0" encoding="utf-8"?>
<!-- Generator: Adobe Illustrator 27.0.0, SVG Export Plug-In . SVG Version: 6.00 Build 0)  -->
<svg version="1.1" id="Layer_1" xmlns="http://www.w3.org/2000/svg" xmlns:xlink="http://www.w3.org/1999/xlink" x="0px" y="0px"
	 viewBox="0 0 686 484" style="enable-background:new 0 0 686 484;" xml:space="preserve">
<style type="text/css">
	.st0{opacity:0.2;fill:#C0C0C0;enable-background:new    ;}
	.st1{fill:#FFFFFF;}
	.st2{fill:none;stroke:#000000;stroke-miterlimit:10;}
	.st3{font-family:'Arial-BoldMT';}
	.st4{font-size:13px;}
	.st5{font-family:'ArialMT';}
</style>
<g>
	<g transform="translate(-84,-2070) scale(1,1)">
		<rect x="255" y="2087" class="st0" width="137.2" height="15"/>
	</g>
	<g transform="translate(-84,-2070) scale(1,1)">
		<rect x="255" y="2101" class="st0" width="343" height="201"/>
	</g>
	<g transform="translate(-84,-2070) scale(1,1)">
		<rect x="248" y="2095" class="st1" width="343" height="200"/>
	</g>
	<g transform="translate(-84,-2070) scale(1,1)">
		<path class="st2" d="M248,2095h343v200H248V2095z"/>
	</g>
	<g transform="translate(-84,-2070) scale(1,1)">
		<rect x="248" y="2080" class="st1" width="137.2" height="15"/>
	</g>
	<g transform="translate(-84,-2070) scale(1,1)">
		<path class="st2" d="M248,2080h137.2v15H248V2080z"/>
	</g>
	<g transform="translate(-84,-2070) scale(1,1)">
		<rect x="248" y="2094" class="st1" width="343" height="201"/>
	</g>
	<g transform="translate(-84,-2070) scale(1,1)">
		<path class="st2" d="M248,2094h343v201H248V2094z"/>
	</g>
	<g transform="translate(-84,-2070) scale(1,1)">
		<g>
			<path class="st2" d="M0,0"/>
			<text transform="matrix(1 0 0 1 340.7383 2114.5)" class="st3 st4">Exteneral payment process</text>
		</g>
	</g>
	<g transform="translate(-84,-2070) scale(1,1)">
		<path class="st1" d="M130.3,2434.7c0-4.8,3.9-8.7,8.7-8.7s8.7,3.9,8.7,8.7c0,4.8-3.9,8.7-8.7,8.7S130.3,2439.5,130.3,2434.7z"/>
	</g>
	<g transform="translate(-84,-2070) scale(1,1)">
		<path class="st2" d="M130.3,2434.7c0-4.8,3.9-8.7,8.7-8.7s8.7,3.9,8.7,8.7c0,4.8-3.9,8.7-8.7,8.7S130.3,2439.5,130.3,2434.7z"/>
	</g>
	<g transform="translate(-84,-2070) scale(1,1)">
		<path class="st2" d="M139,2443.4v17.3"/>
	</g>
	<g transform="translate(-84,-2070) scale(1,1)">
		<path class="st2" d="M129.8,2449.8h18.4"/>
	</g>
	<g transform="translate(-84,-2070) scale(1,1)">
		<path class="st2" d="M139,2460.6l-12.8,17.4"/>
	</g>
	<g transform="translate(-84,-2070) scale(1,1)">
		<path class="st2" d="M139,2460.6l12.8,17.4"/>
	</g>
	<g transform="translate(-84,-2070) scale(1,1)">
		<g>
			<path class="st2" d="M0,0"/>
			<text transform="matrix(1 0 0 1 122.3354 2498.5)" class="st3 st4">Client</text>
		</g>
	</g>
	<g transform="translate(-84,-2070) scale(1,1)">
		<g>
			<path d="M0,0"/>
			<text transform="matrix(1 0 0 1 98.5 2513.5)" class="st5 st4">(from Model1)</text>
		</g>
	</g>
	<g transform="translate(-84,-2070) scale(1,1)">
		<rect x="255" y="2319" class="st0" width="204.8" height="15"/>
	</g>
	<g transform="translate(-84,-2070) scale(1,1)">
		<rect x="255" y="2333" class="st0" width="512" height="218"/>
	</g>
	<g transform="translate(-84,-2070) scale(1,1)">
		<rect x="248" y="2327" class="st1" width="512" height="217"/>
	</g>
	<g transform="translate(-84,-2070) scale(1,1)">
		<path class="st2" d="M248,2327h512v217H248V2327z"/>
	</g>
	<g transform="translate(-84,-2070) scale(1,1)">
		<rect x="248" y="2312" class="st1" width="204.8" height="15"/>
	</g>
	<g transform="translate(-84,-2070) scale(1,1)">
		<path class="st2" d="M248,2312h204.8v15H248V2312z"/>
	</g>
	<g transform="translate(-84,-2070) scale(1,1)">
		<rect x="248" y="2326" class="st1" width="512" height="218"/>
	</g>
	<g transform="translate(-84,-2070) scale(1,1)">
		<path class="st2" d="M248,2326h512v218H248V2326z"/>
	</g>
	<g transform="translate(-84,-2070) scale(1,1)">
		<g>
			<path class="st2" d="M0,0"/>
			<text transform="matrix(1 0 0 1 438.6033 2346.5)" class="st3 st4">Payment Management</text>
		</g>
	</g>
	<g transform="translate(-84,-2070) scale(1,1)">
		<rect x="319" y="2471" class="st0" width="63.2" height="37"/>
	</g>
	<g transform="translate(-84,-2070) scale(1,1)">
		<rect x="312" y="2464" class="st1" width="63.2" height="37"/>
	</g>
	<g transform="translate(-84,-2070) scale(1,1)">
		<path class="st2" d="M312,2464h63.2v37H312V2464z"/>
	</g>
	<g transform="translate(-84,-2070) scale(1,1)">
		<rect x="312" y="2464" class="st1" width="63.2" height="37"/>
	</g>
	<g transform="translate(-84,-2070) scale(1,1)">
		<path class="st2" d="M312,2464h63.2v37H312V2464z"/>
	</g>
	<g transform="translate(-84,-2070) scale(1,1)">
		<g>
			<path class="st2" d="M0,0"/>
			<text transform="matrix(1 0 0 1 317.9441 2483.5)" class="st3 st4">Payment</text>
			<path class="st2" d="M370.7,2483.5h-54.2"/>
			<text transform="matrix(1 0 0 1 331.3154 2496.5)" class="st3 st4">filter</text>
			<path class="st2" d="M357.7,2496.5h-28.2"/>
		</g>
	</g>
	<g transform="translate(-84,-2070) scale(1,1)">
		<path class="st2" d="M168,2488l144,1"/>
	</g>
	<g transform="translate(-84,-2070) scale(1,1)">
		<path class="st2" d="M301.8,2493.1l10.2-4.1l-10.1-4.3"/>
	</g>
	<g transform="translate(-84,-2070) scale(1,1)">
		<g>
			<path class="st2" d="M0,0"/>
			<text transform="matrix(1 0 0 1 189 2458)" class="st5 st4">Client</text>
			<text transform="matrix(1 0 0 1 189 2471)" class="st5 st4">executes</text>
			<text transform="matrix(1 0 0 1 189 2484)" class="st5 st4">payment</text>
		</g>
	</g>
	<g transform="translate(-84,-2070) scale(1,1)">
		<rect x="303" y="2135" class="st0" width="63.2" height="50"/>
	</g>
	<g transform="translate(-84,-2070) scale(1,1)">
		<rect x="296" y="2128" class="st1" width="63.2" height="50"/>
	</g>
	<g transform="translate(-84,-2070) scale(1,1)">
		<path class="st2" d="M296,2128h63.2v50H296V2128z"/>
	</g>
	<g transform="translate(-84,-2070) scale(1,1)">
		<rect x="296" y="2128" class="st1" width="63.2" height="50"/>
	</g>
	<g transform="translate(-84,-2070) scale(1,1)">
		<path class="st2" d="M296,2128h63.2v50H296V2128z"/>
	</g>
	<g transform="translate(-84,-2070) scale(1,1)">
		<g>
			<path class="st2" d="M0,0"/>
			<text transform="matrix(1 0 0 1 301.9441 2147.5)" class="st3 st4">Payment</text>
			<path class="st2" d="M354.7,2147.5h-54.2"/>
			<text transform="matrix(1 0 0 1 305.9241 2160.5)" class="st3 st4">System</text>
			<path class="st2" d="M350.7,2160.5h-46.2"/>
			<text transform="matrix(1 0 0 1 303.3914 2173.5)" class="st3 st4">Provider</text>
			<path class="st2" d="M354,2173.5h-52.7"/>
		</g>
	</g>
	<g transform="translate(-84,-2070) scale(1,1)">
		<rect x="447" y="2191" class="st0" width="66.1" height="37"/>
	</g>
	<g transform="translate(-84,-2070) scale(1,1)">
		<rect x="440" y="2184" class="st1" width="66.1" height="37"/>
	</g>
	<g transform="translate(-84,-2070) scale(1,1)">
		<path class="st2" d="M440,2184h66.1v37H440V2184z"/>
	</g>
	<g transform="translate(-84,-2070) scale(1,1)">
		<rect x="440" y="2184" class="st1" width="66.1" height="37"/>
	</g>
	<g transform="translate(-84,-2070) scale(1,1)">
		<path class="st2" d="M440,2184h66.1v37H440V2184z"/>
	</g>
	<g transform="translate(-84,-2070) scale(1,1)">
		<g>
			<path class="st2" d="M0,0"/>
			<text transform="matrix(1 0 0 1 458.9568 2203.5)" class="st3 st4">Card</text>
			<path class="st2" d="M487.9,2203.5h-29.6"/>
			<text transform="matrix(1 0 0 1 445.9504 2216.5)" class="st3 st4">Schemes</text>
			<path class="st2" d="M501.6,2216.5h-57.1"/>
		</g>
	</g>
	<g transform="translate(-84,-2070) scale(1,1)">
		<path class="st2" d="M342,2367l-13-188"/>
	</g>
	<g transform="translate(-84,-2070) scale(1,1)">
		<path class="st2" d="M356,2367l103-145"/>
	</g>
	<g transform="translate(-84,-2070) scale(1,1)">
		<path class="st2" d="M343,2463v-57"/>
	</g>
	<g transform="translate(-84,-2070) scale(1,1)">
		<path class="st2" d="M347.2,2416.2L343,2406l-4.2,10.2"/>
	</g>
	<g transform="translate(-84,-2070) scale(1,1)">
		<rect x="319" y="2375" class="st0" width="63.2" height="37"/>
	</g>
	<g transform="translate(-84,-2070) scale(1,1)">
		<rect x="312" y="2368" class="st1" width="63.2" height="37"/>
	</g>
	<g transform="translate(-84,-2070) scale(1,1)">
		<path class="st2" d="M312,2368h63.2v37H312V2368z"/>
	</g>
	<g transform="translate(-84,-2070) scale(1,1)">
		<rect x="312" y="2368" class="st1" width="63.2" height="37"/>
	</g>
	<g transform="translate(-84,-2070) scale(1,1)">
		<path class="st2" d="M312,2368h63.2v37H312V2368z"/>
	</g>
	<g transform="translate(-84,-2070) scale(1,1)">
		<g>
			<path class="st2" d="M0,0"/>
			<text transform="matrix(1 0 0 1 317.9441 2387.5)" class="st3 st4">Payment</text>
			<path class="st2" d="M370.7,2387.5h-54.2"/>
			<text transform="matrix(1 0 0 1 318.6646 2400.5)" class="st3 st4">executor</text>
			<path class="st2" d="M370.7,2400.5h-54.2"/>
		</g>
	</g>
	<g transform="translate(-84,-2070) scale(1,1)">
		<rect x="681" y="2423" class="st0" width="76.8" height="44"/>
	</g>
	<g transform="translate(-84,-2070) scale(1,1)">
		<rect x="674" y="2416" class="st1" width="76.8" height="44"/>
	</g>
	<g transform="translate(-84,-2070) scale(1,1)">
		<path class="st2" d="M674,2416h76.8v44H674V2416z"/>
	</g>
	<g transform="translate(-84,-2070) scale(1,1)">
		<rect x="664" y="2423" class="st1" width="20" height="10"/>
	</g>
	<g transform="translate(-84,-2070) scale(1,1)">
		<path class="st2" d="M664,2423h20v10h-20V2423z"/>
	</g>
	<g transform="translate(-84,-2070) scale(1,1)">
		<rect x="664" y="2443" class="st1" width="20" height="10"/>
	</g>
	<g transform="translate(-84,-2070) scale(1,1)">
		<path class="st2" d="M664,2443h20v10h-20V2443z"/>
	</g>
	<g transform="translate(-84,-2070) scale(1,1)">
		<g>
			<path class="st2" d="M0,0"/>
			<text transform="matrix(1 0 0 1 689.5791 2435.5)" class="st3 st4">Database</text>
			<path class="st2" d="M746.3,2435.5h-57.8"/>
		</g>
	</g>
	<g transform="translate(-84,-2070) scale(1,1)">
		<path class="st2" d="M376,2391l287,41"/>
	</g>
	<g transform="translate(-84,-2070) scale(1,1)">
		<g>
			<path class="st2" d="M0,0"/>
			<text transform="matrix(1 0 0 1 461 2386)" class="st5 st4">Payment order</text>
			<text transform="matrix(1 0 0 1 461 2399)" class="st5 st4">stored</text>
		</g>
	</g>
	<g transform="translate(-84,-2070) scale(1,1)">
		<g>
			<path d="M0,0"/>
			<text transform="matrix(1 0 0 1 261 2434)" class="st5 st4">Payment</text>
			<text transform="matrix(1 0 0 1 261 2447)" class="st5 st4">order</text>
			<text transform="matrix(1 0 0 1 261 2460)" class="st5 st4">confirmed</text>
		</g>
	</g>
	<g transform="translate(-84,-2070) scale(1,1)">
		<rect x="495" y="2503" class="st0" width="56.7" height="24"/>
	</g>
	<g transform="translate(-84,-2070) scale(1,1)">
		<rect x="488" y="2496" class="st1" width="56.7" height="24"/>
	</g>
	<g transform="translate(-84,-2070) scale(1,1)">
		<path class="st2" d="M488,2496h56.7v24H488V2496z"/>
	</g>
	<g transform="translate(-84,-2070) scale(1,1)">
		<rect x="488" y="2496" class="st1" width="56.7" height="24"/>
	</g>
	<g transform="translate(-84,-2070) scale(1,1)">
		<path class="st2" d="M488,2496h56.7v24H488V2496z"/>
	</g>
	<g transform="translate(-84,-2070) scale(1,1)">
		<g>
			<path class="st2" d="M0,0"/>
			<text transform="matrix(1 0 0 1 498.5239 2515.5)" class="st3 st4">Wallet</text>
			<path class="st2" d="M535.2,2515.5h-37.8"/>
		</g>
	</g>
	<g transform="translate(-84,-2070) scale(1,1)">
		<path class="st2" d="M376,2475l111-25"/>
	</g>
	<g transform="translate(-84,-2070) scale(1,1)">
		<path class="st2" d="M478,2456.3l9-6.3l-10.8-1.9"/>
	</g>
	<g transform="translate(-84,-2070) scale(1,1)">
		<rect x="495" y="2439" class="st0" width="56.7" height="24"/>
	</g>
	<g transform="translate(-84,-2070) scale(1,1)">
		<rect x="488" y="2432" class="st1" width="56.7" height="24"/>
	</g>
	<g transform="translate(-84,-2070) scale(1,1)">
		<path class="st2" d="M488,2432h56.7v24H488V2432z"/>
	</g>
	<g transform="translate(-84,-2070) scale(1,1)">
		<rect x="488" y="2432" class="st1" width="56.7" height="24"/>
	</g>
	<g transform="translate(-84,-2070) scale(1,1)">
		<path class="st2" d="M488,2432h56.7v24H488V2432z"/>
	</g>
	<g transform="translate(-84,-2070) scale(1,1)">
		<g>
			<path class="st2" d="M0,0"/>
			<text transform="matrix(1 0 0 1 496.1023 2451.5)" class="st3 st4">Ledger</text>
			<path class="st2" d="M538,2451.5h-43.3"/>
		</g>
	</g>
	<g transform="translate(-84,-2070) scale(1,1)">
		<path class="st2" d="M376,2487l111,17"/>
	</g>
	<g transform="translate(-84,-2070) scale(1,1)">
		<path class="st2" d="M476.3,2506.6l10.7-2.6l-9.4-5.7"/>
	</g>
	<g transform="translate(-84,-2070) scale(1,1)">
		<path class="st2" d="M546,2443l117-4"/>
	</g>
	<g transform="translate(-84,-2070) scale(1,1)">
		<path class="st2" d="M546,2497l117-43"/>
	</g>
	<g transform="translate(-84,-2070) scale(1,1)">
		<g>
			<path class="st2" d="M0,0"/>
			<text transform="matrix(1 0 0 1 365 2522)" class="st5 st4">Account balance</text>
			<text transform="matrix(1 0 0 1 365 2535)" class="st5 st4">update</text>
		</g>
	</g>
	<g transform="translate(-84,-2070) scale(1,1)">
		<g>
			<path d="M0,0"/>
			<text transform="matrix(1 0 0 1 381 2442)" class="st5 st4">Payment record</text>
			<text transform="matrix(1 0 0 1 381 2455)" class="st5 st4">stored</text>
		</g>
	</g>
</g>
</svg>
